<svg id="Layer_1" data-name="Layer 1" xmlns="http://www.w3.org/2000/svg" viewBox="0 0 428.7 122.88"><defs><style>.cls-1{fill:#0e1032;}.cls-2{fill:#efe6e1;}.cls-3{fill:#4a90e2;}.cls-4{fill:#d7a29c;}.cls-5{fill:#f3c4b9;}.cls-6{fill:#eb8f78;}.cls-7{fill:#ddd5da;}.cls-8{fill:#2a4a81;}</style></defs><path class="cls-1" d="M140.89,55.65a23.94,23.94,0,0,1,5.35-15.53Q152.62,32,164.83,32q18.35,1.78,22.67,16.55a45.15,45.15,0,0,1,1,7.13v29a6,6,0,0,1-3.82,5.86,6.32,6.32,0,0,1-2.8.76A5.77,5.77,0,0,1,176,87.24a6.82,6.82,0,0,1-.51-2.55v-29q-.51-9.42-10.7-10.44-8.66,0-10.44,8.15a11.81,11.81,0,0,0-.25,2.29v29q0,4.08-4.08,5.86a4.13,4.13,0,0,1-2.55.76,6.23,6.23,0,0,1-6.11-4.07,6.82,6.82,0,0,1-.51-2.55Z"/><path class="cls-1" d="M249.14,37.57V87.49q0,15.29-6.62,21.65-5.36,5.61-17.58,5.6a32.07,32.07,0,0,1-21.39-4.33,6.47,6.47,0,0,1-3.31-5.85,6.07,6.07,0,0,1,3.56-5.86,5.62,5.62,0,0,1,6.62.25q4.08,2.3,13.76,2.3h.51q6.62,0,8.4-1.79,2.29-2,2.29-10.69a23.59,23.59,0,0,1-15.28,2q-16.31-4.32-19.35-23.43a38.67,38.67,0,0,1-.51-6.37V37.57a6.39,6.39,0,0,1,4.07-6.37,5.68,5.68,0,0,1,2.55-.51,6.9,6.9,0,0,1,5.09,2,6.61,6.61,0,0,1,2,4.84V61q0,11,5.6,15a8.84,8.84,0,0,0,5.1,1.78,11.53,11.53,0,0,0,5.6-1.78q3.57-1.53,4.59-4.08a21.9,21.9,0,0,0,.5-5.09V37.57A7,7,0,0,1,239,31.46a6.58,6.58,0,0,1,6.62,0A7,7,0,0,1,249.14,37.57Z"/><path class="cls-1" d="M305.43,91.06a5.86,5.86,0,0,1-5.1,2,6.38,6.38,0,0,1-6.11-4.33q-7.89,4.07-17.32,1a33.56,33.56,0,0,1-4.33-2.29q-8.4-5.34-10.7-16-3.56-16.8,4.33-28.52,7.14-9.68,18.6-9.68a20.64,20.64,0,0,1,9.68,2.55,25.9,25.9,0,0,1,4.33,3.05q7.63,6.88,8.4,18.85v26Q307.21,88.77,305.43,91.06ZM281.49,47.5a8.19,8.19,0,0,0-6.12,6.63,30.06,30.06,0,0,0,0,15.53,4.53,4.53,0,0,0,.51,2A8.71,8.71,0,0,0,283,77.3a14,14,0,0,0,4.84-.25q5.1-2,5.86-10.44.26-11.72-1.53-15a8.81,8.81,0,0,0-10.69-4.08Z"/><path class="cls-1" d="M318.93,55.65a23.94,23.94,0,0,1,5.35-15.53Q330.64,32,342.87,32q18.33,1.78,22.67,16.55a46.34,46.34,0,0,1,1,7.13v29a6.06,6.06,0,0,1-3.82,5.86,6.35,6.35,0,0,1-2.81.76,5.76,5.76,0,0,1-5.85-4.07,6.82,6.82,0,0,1-.51-2.55v-29q-.51-9.42-10.7-10.44-8.67,0-10.44,8.15a11.15,11.15,0,0,0-.26,2.29v29q0,4.08-4.07,5.86a4.13,4.13,0,0,1-2.55.76,6.21,6.21,0,0,1-6.11-4.07,6.82,6.82,0,0,1-.51-2.55Z"/><path class="cls-1" d="M417.24,35q11.46,8.67,11.46,26,0,18.6-11.46,26.24a27,27,0,0,1-30.06-1q-9.68-8.14-9.42-25.22,0-18.07,11.46-25.72A23.22,23.22,0,0,1,403,31,25.17,25.17,0,0,1,417.24,35ZM403,78.07q12.48,0,12.48-17.07,0-16.55-12.48-16.55a11.38,11.38,0,0,0-6.37,2Q391,50.05,391,61v1Q391,78.07,403,78.07Z"/><path class="cls-2" d="M23.52,90.27a100.6,100.6,0,0,0,2.78,10.31,105.1,105.1,0,0,1,4.2-9.84Z"/><path class="cls-3" d="M66.37,118.16l-.31,0c-1.71-.27-3.18-.53-4.5-.78-38-7-52.5-22.77-53.1-23.43L6.78,92l2.27-5.47-5.14-4.7,6.24-7.27c-.05-7.43,3.55-17.86,5.06-21.9C10,27,22.23,8.05,22.76,7.25L24.6,4.47l3.06,1.3c8.71,3.67,19,13.61,23.29,18l.48-.15c.55-.17,1.07-.34,1.59-.48l.16,0q.57-.16,1.14-.3c1.09-.27,2.2-.5,3.33-.71l1.8-.3c.58-.09,1.24-.17,2.06-.26,1.18-.12,2.33-.2,3.43-.23l1,0h2.57c.87,0,1.74.08,2.61.16s1.86.19,2.8.33c.63.1,1.23.19,1.83.31s1,.2,1.55.3l3.32.68v.14c.54.15,1,.29,1.4.43l.4.12c4.3-4.41,14.58-14.35,23.3-18l3.06-1.29,1.83,2.78c.53.8,12.76,19.74,7.56,45.43,1.5,4,5.1,14.47,5,21.9l6.25,7.28-5.15,4.69L126.59,92l-1.68,1.88c-.6.66-15.11,16.39-53.14,23.44-1.28.25-2.74.5-4.44.77l-.32,0Z"/><path class="cls-1" d="M107.85,7.58l.69,1c.51.78,12.41,19.21,7,44.26,1,2.52,5.56,15,5.13,22.59L126,81.64l-4.66,4.24,2.34,5.64-.63.7c-.58.64-14.53,15.77-51.73,22.66-1.26.24-2.7.5-4.39.77h-.48c-1.67-.27-3.11-.52-4.41-.77C24.85,108,10.9,92.86,10.32,92.22l-.63-.7L12,85.88,7.38,81.64l5.29-6.17c-.43-7.6,4.17-20.07,5.13-22.59C12.42,27.83,24.34,9.4,24.85,8.62l.69-1,1.15.49C35.91,12,47.3,23.57,50.26,26.68l.46-.17c.43-.15.92-.32,1.45-.48s1-.32,1.51-.46l.16,0,1-.27C56,25,57,24.77,58.09,24.57c.54-.1,1.1-.19,1.72-.28s1.2-.17,2-.26c1.1-.11,2.18-.18,3.23-.21l.94,0h1.87l.59,0q1.26,0,2.49.15c.87.08,1.77.18,2.66.31l1.75.29,1.49.3,1.33.27v0l.4.09.72.19.52.14,1.47.45c.59.18,1.06.34,1.45.49l.43.15c3-3.12,14.34-14.71,23.58-18.61l1.15-.49m1.88-6.22L105.9,3l-1.15.48c-8.37,3.54-18,12.43-22.9,17.36l-2.71-.58L77.81,20c-.52-.11-1-.22-1.61-.32l-1.87-.31c-1-.15-2-.27-3-.35s-1.79-.14-2.74-.17H65.88l-1,0c-1.16,0-2.36.12-3.56.24-.88.1-1.58.19-2.23.29s-1.26.19-1.87.31c-1.13.2-2.28.44-3.46.73l-1.19.31-.17.05-.69.2C46.42,15.68,37,7,28.63,3.46L27.48,3,23.66,1.36,21.37,4.83l-.69,1c-.55.83-13.12,20.26-8.06,46.61-1.6,4.36-4.73,13.8-5,21.16L3.59,78.39.43,82.06,4,85.33l2.05,1.88-1,2.4-1.2,2.91L6,94.86l.64.71c1.55,1.73,16.32,17.15,54.52,24.22,1.32.26,2.82.52,4.53.79l.12,0,.39.06h1l.39-.06.12,0c1.75-.28,3.24-.54,4.55-.8,38.17-7.06,52.94-22.48,54.5-24.22l.63-.7,2.11-2.34L128.3,89.6l-1-2.38,2.06-1.88L133,82.07l-3.16-3.68-4.08-4.75c-.23-7.37-3.36-16.8-5-21.17,5-26.33-7.51-45.77-8.06-46.6l-.69-1-2.29-3.47Z"/><path class="cls-2" d="M119.55,85.44l2.38,5.74S108.17,106.48,71,113.36c-1.4.27-2.87.53-4.35.76-1.47-.23-2.94-.49-4.34-.76-37.13-6.88-50.89-22.18-50.89-22.18l2.38-5.74-4.36-4,4.75-5.53s32.93,20.65,52.46-2.38c19.54,23,52.47,2.38,52.47,2.38l4.75,5.53Z"/><path class="cls-4" d="M61.55,85.31c0,1.7,2.3,3.07,5.14,3.07s5.15-1.37,5.15-3.07-2.3-3.07-5.15-3.07S61.55,83.62,61.55,85.31Z"/><path class="cls-5" d="M93.22,34a6.26,6.26,0,0,0,4.36,3.37c3,.39,7.72-4.16,7.72-4.16l-3,8.31h4.75l-1.58,3.77,4.75,4.55s6.14-20.79-4-36Z"/><path class="cls-5" d="M40.13,34a6.24,6.24,0,0,1-4.35,3.37c-3,.39-7.73-4.16-7.73-4.16l3,8.31H26.27l1.59,3.77L23.1,49.84s-6.13-20.79,4-36Z"/><path class="cls-6" d="M55.41,91c.39,2.08,2.87,3.67,2.87,3.67,5.54,1.68,8.41-4.36,8.41-4.36s2.88,6,8.42,4.36c0,0,2.47-1.59,2.87-3.67,0,0,2.48-1.68,2.67.8s-7,10.09-14,2.17c-6.93,7.92-14.15.3-14-2.17S55.41,91,55.41,91Z"/><path class="cls-1" d="M85.2,74.44a7.38,7.38,0,1,0,7.38-7.37A7.38,7.38,0,0,0,85.2,74.44Z"/><circle class="cls-7" cx="93.22" cy="70.78" r="2.82"/><path class="cls-1" d="M34.12,73.6a7.38,7.38,0,1,0,7.37-7.38A7.38,7.38,0,0,0,34.12,73.6Z"/><circle class="cls-7" cx="42.13" cy="69.94" r="2.82"/><path class="cls-8" d="M74,25.27V38.18a4.8,4.8,0,1,0,9.6,0l0-10.32a40.87,40.87,0,0,0-4.76-1.59C76.51,25.69,74.26,25.3,74,25.27Z"/><path class="cls-8" d="M61.89,25V43.15a4.81,4.81,0,0,0,9.61,0V24.91c-.47-.05-2.51-.22-4.81-.21C64.61,24.7,62.45,24.92,61.89,25Z"/><path class="cls-8" d="M49.86,27.86V38.18a4.8,4.8,0,1,0,9.6,0V25.27a46,46,0,0,0-5,1.05A44.51,44.51,0,0,0,49.86,27.86Z"/><path class="cls-1" d="M107.28,9.45A60.71,60.71,0,0,1,114,53s5.94,15,5.14,23l4.75,5.53-4.36,4,2.38,5.74S108.17,106.52,71,113.4c-1.4.27-2.87.53-4.35.76h0c-1.49-.23-2.95-.49-4.37-.76C25.2,106.52,11.44,91.22,11.44,91.22l2.38-5.74-4.35-4L14.22,76c-.79-7.93,5.15-23,5.15-23A60.62,60.62,0,0,1,26.1,9.45c10.29,4.35,23.76,19,23.76,19l.08,0a2.5,2.5,0,0,0,.25-.09l.17-.07c.22-.1.51-.21.86-.33s.85-.3,1.4-.47,1-.31,1.46-.44.75-.21,1.13-.3c.94-.23,2-.46,3.15-.67L60,25.77c.65-.1,1.28-.17,1.91-.24,1.06-.11,2.1-.18,3.11-.21l.9,0h1.48l.91,0c.79,0,1.59.07,2.42.15s1.71.17,2.59.3l1.69.28c.55.1,1.08.21,1.59.32h0c.54.11,1.06.23,1.54.35l1.13.3c.54.15,1,.3,1.46.44s1,.33,1.4.47.64.23.86.33l.18.07a1.7,1.7,0,0,0,.24.09l.08,0S97,13.8,107.28,9.45M25,5.71,23.6,7.8A54.66,54.66,0,0,0,17.78,21a64.49,64.49,0,0,0-1.54,31.77C15,56,11,67.37,11.15,74.94l-4,4.62-1.9,2.21,2.15,2,2.8,2.55L8.67,90.07l-.73,1.75,1.27,1.41c.59.65,14.87,16.14,52.55,23.12,1.32.26,2.77.51,4.45.78l.24,0h.47l.25,0c1.7-.27,3.15-.53,4.43-.78,37.69-7,52-22.47,52.56-23.12l1.27-1.41-.73-1.75-1.56-3.79,2.8-2.54,2.15-2-1.9-2.21-4-4.62c.17-7.57-3.88-18.95-5.09-22.18A64.49,64.49,0,0,0,115.6,21,55.36,55.36,0,0,0,109.79,7.8l-1.38-2.09-2.3,1C97.23,10.44,86.52,21,82.71,24.94l-1-.34c-.47-.16-1-.3-1.51-.46h-.12L79.63,24h0v-.08l-2.4-.5-.13,0c-.49-.1-1-.21-1.53-.3s-1.24-.22-1.76-.3h0c-.92-.14-1.85-.25-2.75-.32s-1.68-.13-2.58-.16l-.6,0h-.33l-.82,0h-.79l-1,0c-1.07,0-2.18.1-3.3.22-.81.09-1.46.17-2.06.26s-1.2.19-1.76.3c-1.1.19-2.18.42-3.31.7-.37.09-.72.18-1.06.28l-.17,0c-.54.15-1.06.32-1.57.48s-.71.22-1,.34C46.86,21,36.15,10.44,27.27,6.68l-2.3-1Z"/></svg>