<svg id="Layer_1" data-name="Layer 1" xmlns="http://www.w3.org/2000/svg" viewBox="0 0 1000 1000"><defs><style>.cls-1{fill:#efe6e1;}.cls-2{fill:#4a90e2;}.cls-3{fill:#d7a29c;}.cls-4{fill:#f3c4b9;}.cls-5{fill:#eb8f78;}.cls-6{fill:#0e1032;}.cls-7{fill:#ddd5da;}</style></defs><path class="cls-1" d="M148.46,734.75s6.73,34.56,22.58,84a836.83,836.83,0,0,1,34.26-80.12Z"/><path class="cls-2" d="M499,941.57l-1-.15c-13.56-2.17-25.31-4.23-35.92-6.28C159.26,879.05,45.65,755.9,41,750.69L35.81,745l19-45.9L17,664.51l43.1-50.22c-3.51-61.93,33.92-163.47,41.76-184-43.83-204,53.2-354.1,57.37-360.42l5.61-8.49,9.36,4C249.35,97.14,342.08,191.6,366.15,217c1.12-.42,2.39-.88,3.77-1.37,3.5-1.27,7.52-2.62,11.82-4,4.1-1.3,8.19-2.6,12.3-3.72l1.29-.36c2.83-.78,5.6-1.53,8.42-2.18,8.81-2.18,17.45-4,26.21-5.58,4.36-.82,9-1.59,14-2.33,4.61-.72,9.73-1.38,16-2.06,8.93-.93,17.75-1.51,26.26-1.74,2.45-.12,5.05-.19,7.69-.19,1.8-.06,3.94-.09,6.06-.09s4.25,0,6.35.09l2.82.06c1.61,0,3.19.06,4.77.14,6.9.19,13.61.6,20.3,1.22,7.07.61,14.4,1.47,21.69,2.53,4.77.74,9.49,1.5,14.22,2.38,4.19.76,8.22,1.59,12.15,2.4l10.82,2.22v.2l3.27.79c2,.48,3.94,1,5.84,1.53l4.21,1.13c4.26,1.24,8.29,2.41,12,3.64,4.85,1.5,8.69,2.79,11.84,4,1.23.43,2.41.86,3.51,1.27,24.08-25.39,116.76-119.83,192-151.58l9.37-4,5.6,8.49c4.17,6.33,101.08,156.41,57.36,360.42,7.84,20.49,45.27,122,41.74,184L983,664.52l-38,34.54L964,745l-5.15,5.74C954.2,755.9,840.6,879.05,537.64,935.16c-10.27,2-22,4.05-35.7,6.26l-1,.15Z"/><path class="cls-1" d="M930.43,695.81l19.37,46.7s-112,124.62-414.39,180.63C524,925.37,512,927.4,500,929.34v-.29c-12-1.94-24-4-35.41-6.21-302.35-56-414.38-180.62-414.38-180.62l19.36-46.71L34.05,663.18l38.72-45.07S340.94,786.25,500,598.76C659.07,786.25,927.24,618.4,927.24,618.4L966,663.48Z"/><path class="cls-3" d="M458.06,694.4c0,13.8,18.77,25,41.93,25s41.92-11.19,41.92-25-18.77-25-41.92-25S458.06,680.59,458.06,694.4Z"/><path class="cls-4" d="M716,276.55s11.29,24.18,35.48,27.41,62.88-33.86,62.88-33.86L790.2,337.82h38.7L816,368.46l38.7,37.08s50-169.3-32.25-293.46Z"/><path class="cls-4" d="M283.7,276.55S272.42,300.73,248.23,304s-62.88-33.86-62.88-33.86l24.18,67.72h-38.7l12.9,30.64L145,405.54s-50-169.3,32.24-293.46Z"/><path class="cls-5" d="M408.08,740.35c3.22,16.93,23.38,29.83,23.38,29.83,45.15,13.7,68.53-35.47,68.53-35.47s23.38,49.17,68.52,35.47c0,0,20.16-12.9,23.38-29.83,0,0,20.16-13.71,21.77,6.45S556.42,829,500,764.54C443.55,829,384.7,767,386.31,746.8S408.08,740.35,408.08,740.35Z"/><path class="cls-6" d="M650.73,605.88a60.07,60.07,0,1,0,60.06-60.06A60.06,60.06,0,0,0,650.73,605.88Z"/><circle class="cls-7" cx="716.03" cy="576.05" r="22.98"/><path class="cls-6" d="M234.7,599A60.07,60.07,0,1,0,294.76,539,60.06,60.06,0,0,0,234.7,599Z"/><circle class="cls-7" cx="300" cy="569.2" r="22.98"/><path class="cls-6" d="M830.52,76.65s99.92,151.49,54.84,354.67c0,0,48.38,122.54,41.88,187.09L966,663.48,930.44,695.8l19.36,46.71s-112,124.63-414.39,180.62C524,925.36,512,927.41,500,929.34h-.07c-12.08-1.93-24-4-35.52-6.21-302.32-56-414.35-180.62-414.35-180.62L69.42,695.8,34,663.48l38.68-45.07c-6.46-64.55,41.92-187.09,41.92-187.09C69.42,228.14,169.45,76.65,169.45,76.65c83.79,35.41,193.48,154.76,193.48,154.76.18-.08.48-.19.67-.26a21.18,21.18,0,0,0,2-.78c.48-.19,1-.41,1.45-.6,1.78-.74,4.08-1.63,6.94-2.63,3.16-1.16,7-2.46,11.41-3.83,4-1.26,7.95-2.53,11.89-3.61,3.12-.85,6.13-1.7,9.22-2.41,7.69-1.9,16.27-3.79,25.64-5.46,4.57-.86,9.1-1.6,13.63-2.27,5.24-.82,10.44-1.45,15.57-2,8.62-.89,17.06-1.45,25.27-1.67,2.49-.11,4.9-.18,7.36-.18,2-.06,4.05-.09,6.06-.09s4,0,6,.09c2.53.07,4.94.07,7.36.18,6.43.19,13,.56,19.73,1.19s13.93,1.41,21.07,2.45c4.53.71,9.14,1.45,13.75,2.31s8.8,1.71,13,2.56c0,0,0,0,0,0,4.39.93,8.62,1.89,12.56,2.86,3.2.78,6.28,1.67,9.18,2.41,4.35,1.27,8.32,2.42,11.89,3.61,4.42,1.37,8.25,2.64,11.41,3.83,2.86,1,5.2,1.89,7,2.63.49.19,1,.41,1.45.6a19.49,19.49,0,0,0,1.93.78c.49.18.67.26.67.26S746.62,112.06,830.52,76.65M160.24,46.2l-11.2,17c-1.1,1.67-27.19,41.58-47.35,107.46C83.58,229.84,67,322.28,89.17,429.35,79.29,455.64,46.33,548.28,47.71,610L15.45,647.55,0,665.55l17.52,16,22.73,20.75L27.47,733.14l-5.91,14.25,10.31,11.47c4.8,5.34,121.1,131.44,428,188.3,10.72,2.08,22.57,4.15,36.23,6.33l1.91.31h3.9l2-.31c13.8-2.22,25.61-4.29,36.1-6.33,306.92-56.86,423.2-183,428-188.3l10.31-11.47-5.91-14.25-12.78-30.82,22.81-20.75,17.58-16-15.49-18L952.23,610c1.4-61.69-31.56-154.33-41.43-180.62,22.13-107.06,5.53-199.5-12.57-258.7C878.09,104.75,852,64.85,850.94,63.18l-11.2-17L821,54.11C748.63,84.66,661.43,170.67,630.45,202.76c-2.42-.84-5.17-1.73-8.39-2.73-3.88-1.29-8-2.48-12.3-3.74l-.26-.07-.38-.11-.38-.1c-1.1-.28-2.23-.59-3.38-.9h0v-.66l-19.53-4-1.08-.22c-4-.81-8-1.65-12.47-2.45-5-.93-10.06-1.74-14.33-2.41h-.12l-.11,0c-7.5-1.09-15-2-22.4-2.61-6.85-.64-13.72-1.06-21-1.27-1.61-.07-3.22-.1-4.86-.13l-2.68-.06c-2.26-.07-4.49-.1-6.74-.1s-4.27,0-6.41.09c-2.38,0-4.9.07-7.88.2-8.73.24-17.79.84-26.91,1.78-6.55.72-11.83,1.4-16.72,2.16-5.07.75-9.78,1.53-14.38,2.39-8.92,1.59-17.72,3.47-26.89,5.72-3.06.71-5.9,1.49-8.64,2.24l-1.38.38c-4.43,1.22-8.7,2.57-12.84,3.89-2.9.9-5.75,1.83-8.47,2.77C338.51,170.71,251.27,84.67,179,54.12L160.24,46.2Z"/><circle class="cls-1" cx="396.74" cy="439.78" r="17.36"/><path class="cls-1" d="M603.62,353.7a17.37,17.37,0,0,0-17.36,17.36c0,13.75-2.18,17.36-17.36,17.36h-1.45a17,17,0,0,0-15.55,17v.36c0,13.39-2.54,16.64-17.36,16.64a2.71,2.71,0,0,0-1.81.36c-8.68,1.09-15.55,8.33-15.55,17a17.37,17.37,0,0,0,17.36,17.36c9,0,16.64-7.24,17-15.91v-1.45c0-12.3,4-17,17-17.36h.36a17.1,17.1,0,0,0,17-16.27v-1.09c0-12.66,4-17.36,17.36-17.36a17.37,17.37,0,0,0,17.36-17.36A16.91,16.91,0,0,0,603.62,353.7Zm-102,34.72h-1.45c-15.18,0-17.36-3.61-17.36-17.36a17.36,17.36,0,0,0-34.72,0c0,13.75-2.18,17-17.36,17h-1.45a17,17,0,0,0-15.55,17,17.37,17.37,0,0,0,17.36,17.36c9,0,16.64-7.24,17-15.91v-1.09c0-12.66,4-17.36,17.36-17.36s17.36,4.7,17.36,17a17.37,17.37,0,0,0,17.36,17.36,17.14,17.14,0,0,0,17.36-17.36A17.52,17.52,0,0,0,501.63,388.42Z"/></svg>